<?xml version="1.0" encoding="utf-8"?>
<!-- Generator: Adobe Illustrator 17.1.0, SVG Export Plug-In . SVG Version: 6.00 Build 0)  -->
<!DOCTYPE svg PUBLIC "-//W3C//DTD SVG 1.1//EN" "http://www.w3.org/Graphics/SVG/1.1/DTD/svg11.dtd">
<svg version="1.1" id="Layer_1" width="213px" xmlns="http://www.w3.org/2000/svg" xmlns:xlink="http://www.w3.org/1999/xlink" x="0px" y="0px"
	 viewBox="0 0 492.3 116.3" enable-background="new 0 0 492.3 116.3" xml:space="preserve">
<g>
	<g>
		<path d="M128.6,35.6c0-15.4,7.1-25.5,22.5-25.5c9.1,0,17.7,3.9,17.7,8.6c0,1.9-1.5,3.5-3.6,3.5c-1.4,0-2-0.7-3.6-1.7
			c-3-2.1-6.1-3.1-10-3.1c-11.3,0-15,7-15,18.2V57c0,11.2,3.7,18.2,15,18.2c3.9,0,7-1,10-3.1c1.7-1,2.2-1.7,3.6-1.7
			c2.1,0,3.6,1.6,3.6,3.5c0,4.7-8.6,8.6-17.7,8.6c-15.4,0-22.5-10.1-22.5-25.5V35.6z"/>
		<path d="M203.8,78.4V53.9L186,16.1c-0.2-0.5-0.4-1.3-0.4-1.9c0-2.2,2-4.1,4.1-4.1c1.2,0,2.5,0.5,3.1,1.6l15.1,32.9L223,11.7
			c0.6-1.1,1.9-1.6,3.1-1.6c2.1,0,4.1,1.9,4.1,4.1c0,0.6-0.2,1.4-0.4,1.9l-17.8,38v24.3c0,2.2-1.8,4.2-4.1,4.2
			C205.6,82.6,203.8,80.7,203.8,78.4z"/>
		<path d="M259,55.6v22.8c0,2.2-1.8,4.2-4,4.2c-2.1,0-4-1.9-4-4.2V15.9c0-2.6,2.2-4.8,4.8-4.8h14.7c16.6,0,22.5,10.7,22.5,22.4
			c0,14.2-8.8,22.1-22.5,22.1H259z M259,47.8h11.5c9.5,0,14.5-4.6,14.5-14.4c0-7.2-2.7-14.5-14.5-14.5H259V47.8z"/>
		<path d="M345.2,50.1l16,26.3c0.3,0.6,0.5,1.5,0.5,2.3c0,2.1-2.7,3.8-4.3,3.8c-1.4,0-2.6-0.7-3.3-1.9l-17.7-30h-11.5v27.8
			c0,2.2-1.9,4.2-4.1,4.2c-2.1,0-3.9-1.9-3.9-4.2V15.9c0-2.6,2.1-4.8,4.6-4.8h17.4c16.5,0,21.8,10.1,21.8,20
			C360.7,41.7,354.7,48.2,345.2,50.1z M338.5,18.9h-13.6v24h14.2c8.8,0,13.6-4.1,13.6-11.8C352.7,25.2,350.1,18.9,338.5,18.9z"/>
		<path d="M405.6,82.6c-14.2,0-22.1-10.2-22.1-24V14.3c0-2.4,1.8-4.2,4.1-4.2c2.1,0,3.9,1.9,3.9,4.2v44.3c0,9.6,4.5,16.2,14.1,16.2
			s14-6.8,14-16.2V14.3c0-2.2,1.7-4.2,3.9-4.2c2.4,0,4.2,2,4.2,4.2v44.3C427.7,72.5,419.5,82.6,405.6,82.6z"/>
		<path d="M477.6,52.4c-9.5-5-26.1-5.1-26.1-22.8c0-12.1,7.8-19.5,20.2-19.5c5,0,17.1,1.2,17.1,6.8c0,2-1.5,3.8-4,3.8
			c-3.1,0-5.7-2.8-12.5-2.8c-6.4,0-12.5,2.5-12.5,11.2c0,6.6,3.5,8.8,5.8,10c9.6,5,26.1,5.2,26.1,22.7c0,13.2-9.3,20.8-21.9,20.8
			c-6.4,0-18.4-2-18.4-7.4c0-2,1.6-3.9,3.6-3.9c2.8,0,7.1,3.5,14.9,3.5c8.9,0,13.4-4.5,13.4-12.3C483.3,56,480.1,53.7,477.6,52.4z"
			/>
	</g>
	<g>
		<path d="M131.8,100.7h-1.7v-1.6h1.7V98c0-1.4,0.4-2.5,1.1-3.3c0.6-0.6,1.6-1,2.7-1c0.9,0,1.5,0.1,2.1,0.3v1.6
			c-0.7-0.2-1.2-0.3-1.8-0.3c-1.5,0-2.2,0.9-2.2,2.7v1h4v1.6h-4v11h-1.9V100.7z"/>
		<path d="M145.5,105.4c0-3.6,2.8-6.6,6.6-6.6c3.8,0,6.6,3,6.6,6.6c0,3.6-2.8,6.6-6.6,6.6C148.2,112,145.5,109,145.5,105.4z
			 M156.7,105.4c0-2.7-2-5-4.7-5c-2.7,0-4.6,2.2-4.6,5c0,2.7,2,4.9,4.7,4.9C154.8,110.3,156.7,108.1,156.7,105.4z"/>
		<path d="M168.4,99h1.9v3.3c0.9-2.1,2.8-3.6,5.2-3.5v2h-0.1c-2.8,0-5,2-5,5.8v5h-1.9V99z"/>
		<path d="M199.1,108.4v-7.6h-1.8V99h1.8v-3.8h1.9V99h4v1.7h-4v7.4c0,1.5,0.9,2.1,2.1,2.1c0.6,0,1.2-0.1,1.8-0.4v1.6
			c-0.7,0.3-1.4,0.5-2.3,0.5C200.7,111.9,199.1,110.9,199.1,108.4z"/>
		<path d="M214.7,99h1.9v3.3c0.9-2.1,2.8-3.6,5.2-3.5v2h-0.1c-2.8,0-5,2-5,5.8v5h-1.9V99z"/>
		<path d="M229.4,108c0-2.7,2.2-4.1,5.4-4.1c1.6,0,2.7,0.2,3.9,0.5V104c0-2.3-1.4-3.4-3.7-3.4c-1.5,0-2.7,0.4-3.8,0.9l-0.6-1.5
			c1.4-0.6,2.7-1.1,4.6-1.1c1.8,0,3.2,0.5,4.1,1.4c0.9,0.9,1.3,2.1,1.3,3.7v7.7h-1.9v-1.9c-0.9,1.1-2.3,2.2-4.6,2.2
			C231.8,112,229.4,110.6,229.4,108z M238.8,107.1v-1.2c-0.9-0.3-2.2-0.5-3.7-0.5c-2.4,0-3.7,1-3.7,2.6c0,1.6,1.5,2.5,3.2,2.5
			C236.9,110.5,238.8,109.1,238.8,107.1z"/>
		<path d="M249.2,99h2.1l4.3,10.5l4.3-10.5h2l-5.5,12.8h-1.7L249.2,99z"/>
		<path d="M276.1,110.4c1.7,0,3-0.7,4-1.8l1.2,1.1c-1.3,1.4-2.8,2.4-5.2,2.4c-3.5,0-6.3-2.7-6.3-6.6c0-3.7,2.6-6.6,6.1-6.6
			c3.7,0,5.9,3,5.9,6.7c0,0.2,0,0.4,0,0.7h-10C271.9,108.8,273.8,110.4,276.1,110.4z M279.8,104.6c-0.2-2.3-1.5-4.3-4-4.3
			c-2.2,0-3.8,1.8-4.1,4.3H279.8z"/>
		<path d="M291.5,93.8h1.9v17.9h-1.9V93.8z"/>
		<path d="M304.3,93.8h1.9v17.9h-1.9V93.8z"/>
		<path d="M322.6,110.4c1.7,0,3-0.7,4-1.8l1.2,1.1c-1.3,1.4-2.8,2.4-5.2,2.4c-3.5,0-6.3-2.7-6.3-6.6c0-3.7,2.6-6.6,6.1-6.6
			c3.8,0,5.9,3,5.9,6.7c0,0.2,0,0.4,0,0.7h-10C318.4,108.8,320.3,110.4,322.6,110.4z M326.3,104.6c-0.2-2.3-1.5-4.3-4-4.3
			c-2.2,0-3.8,1.8-4.1,4.3H326.3z"/>
		<path d="M337.9,99h1.9v3.3c0.9-2.1,2.8-3.6,5.2-3.5v2h-0.1c-2.8,0-5,2-5,5.8v5h-1.9V99z"/>
		<path d="M353.1,110.1l1-1.3c1.4,1,2.9,1.6,4.4,1.6c1.5,0,2.6-0.8,2.6-2.1s-1.5-1.8-3.2-2.2c-2-0.6-4.2-1.2-4.2-3.6
			c0-2.2,1.8-3.6,4.3-3.6c1.5,0,3.3,0.5,4.6,1.4l-0.9,1.4c-1.2-0.8-2.5-1.2-3.7-1.2c-1.5,0-2.5,0.8-2.5,1.9c0,1.2,1.6,1.7,3.3,2.2
			c2,0.6,4.1,1.3,4.1,3.7c0,2.4-2,3.8-4.5,3.8C356.5,112,354.5,111.3,353.1,110.1z"/>
	</g>
	<g>
		<path fill="#F15A29" d="M26.5,45.5c0,0,5.4-22.2,32.6-21.8L76.6,30l10.6,8.6l16.9-9.3l-10.6-12c0,0-24.2-20.2-51.3-11.1
			c0,0-28.3,14-31.1,24.6c-2.8,10.6-0.6,1.1-0.6,1.1L26.5,45.5z"/>
		<circle fill="#F9ED32" cx="58" cy="58" r="31.8"/>
		<circle fill="none" stroke="#000000" stroke-width="7" stroke-miterlimit="10" cx="58" cy="58" r="31.8"/>
		<path fill="#9B8579" d="M74.4,71.3L44.1,48.2l-7.8,7.1l-24-21c0,0-14,20.6-5.1,45.6c0,0,16.7,3.5,31.8,1.1
			c15.1-2.5,25.6-7.6,27.9-6.7C69.2,75.2,69.3,73.6,74.4,71.3z"/>
		<polygon points="76.3,80.1 81.5,73.7 41.7,41.7 34.8,48.9 9.5,26.9 5.4,34.3 35.3,60.3 42.4,52.8 		"/>
		<path fill="#27AAE1" d="M3.8,73.9c0,0,13-0.1,19.7,4c6.7,4.1,29.7,0.6,43.5-8.2c13.7-8.8,23.6,2.5,28.5,5.4
			c4.9,2.9,12.6,2.4,12.6,2.4s-1.3,16.2-18.4,26.1C67,116.8,24.8,120.3,3.8,73.9z"/>
		<path fill="#8DC63F" d="M30.5,81.2c3.5,10.9,9.6,23.8,20,30.4l-24.3-9.7L8.3,80.1l-3.8-7.5C4.5,72.6,27.2,70.9,30.5,81.2z"/>
		<path d="M92.7,102c-9.5,0.5-0.9,0.4-5.4-2c-4.1-2.1-7.6-4-14.7-3.6c-7.2,0.4-10.4,2.6-14.2,5.2c-4.2,2.9-8.9,5.5-18.4,6.1
			c-9.5,0.5-13.6-2.8-18.1-5.2c-2-1,0.4-0.9-1.8-1.6c-2.3-0.7-7.5-9.1-4.8-8.5c4,0.9,6.1,1.7,8.6,3.4c4.5,3.1,4.3,5.5,15.8,4.5
			c7.1-0.7,10.3-3,14.1-5.6c4.2-2.9,9-6.1,18.5-6.6c9.5-0.5,14.6,2.2,19.1,4.6c4.1,2.1,3.2-0.8,10.4-1.2L92.7,102z"/>
		<path fill="none" stroke="#000000" stroke-width="7" stroke-linecap="round" stroke-miterlimit="10" d="M107.8,78.5
			c-7.5,18.2-24.6,31.6-45.5,33.4C32.5,114.4,6.4,92.3,3.9,62.6C1.4,32.8,23.5,6.6,53.2,4.1C74.4,2.4,93.7,13,104,30"/>
		
			<line fill="none" stroke="#000000" stroke-width="7" stroke-linecap="round" stroke-miterlimit="10" x1="104" y1="30" x2="88" y2="38.6"/>
		<path d="M109.3,82.1c-4.1,0.2-4.5-0.2-7.4-0.8c-4.3-1-7.5-2.7-10.5-4.2c-4.5-2.4-8.4-4.5-16.4-4c-8,0.4-11.7,2.9-15.9,5.8
			c-4.6,3.1-9.8,6.6-20.1,7.2c-10.3,0.6-15.9-2.4-20.8-5c-4.5-2.4-6.5-4.5-14.5-4.1l-2.1-6.7l-0.1-1.6c10.3-0.6,15.7,2.4,20.7,5
			c4.5,2.4,8.4,4.5,16.4,4c8-0.4,11.7-2.9,15.9-5.8c4.6-3.1,9.8-6.6,20.1-7.2s15.9,2.4,20.8,5c3,1.6,5.8,3.1,9.7,3.7
			c0.8,0.1,1.7,0.2,3,0.4c2,0.3,3,1.6,3.2,2.5c0,0,0.6,1.5-0.1,3.5C111,80.3,109.3,82.1,109.3,82.1z"/>
		<path fill="none" stroke="#000000" stroke-width="7" stroke-miterlimit="10" d="M27.5,79.3c0,0,5.6,34,36.5,32.5"/>
	</g>
</g>
</svg>
