<svg width="49" height="48" viewBox="0 0 49 48" fill="none" xmlns="http://www.w3.org/2000/svg">
<rect x="0.83252" width="48" height="48" rx="24" fill="#C4C4C4"/>
<path d="M29.8325 14H19.8325C17.0711 14 14.8325 16.2386 14.8325 19V29C14.8325 31.7614 17.0711 34 19.8325 34H29.8325C32.5939 34 34.8325 31.7614 34.8325 29V19C34.8325 16.2386 32.5939 14 29.8325 14Z" stroke="white" stroke-width="2" stroke-linecap="round" stroke-linejoin="round"/>
<path d="M28.8325 23.3701C28.9559 24.2023 28.8138 25.0523 28.4263 25.7991C28.0388 26.5459 27.4257 27.1515 26.6742 27.5297C25.9226 27.908 25.071 28.0397 24.2403 27.906C23.4097 27.7723 22.6423 27.3801 22.0474 26.7852C21.4524 26.1903 21.0603 25.4229 20.9266 24.5923C20.7929 23.7616 20.9246 22.91 21.3029 22.1584C21.6811 21.4069 22.2867 20.7938 23.0335 20.4063C23.7803 20.0188 24.6303 19.8766 25.4625 20.0001C26.3115 20.1259 27.0974 20.5215 27.7042 21.1284C28.3111 21.7352 28.7066 22.5211 28.8325 23.3701Z" stroke="white" stroke-width="2" stroke-linecap="round" stroke-linejoin="round"/>
<path d="M30.3325 18.5H30.3425" stroke="white" stroke-width="2" stroke-linecap="round" stroke-linejoin="round"/>
</svg>
