<svg width="44" height="46" viewBox="0 0 44 46" fill="none" xmlns="http://www.w3.org/2000/svg">
<path fill-rule="evenodd" clip-rule="evenodd" d="M23.1337 8.98824L29.634 11.4661L34.2662 14.8949L40.9613 11.2136L36.7573 6.45966C36.7573 6.45966 27.1367 -1.57091 16.4005 2.03966C16.4005 2.03966 5.14794 7.59868 4.03583 11.8024C2.92333 16.0064 3.79657 12.2252 3.79657 12.2252L10.2028 17.6328C10.2028 17.6328 12.3436 8.81715 23.1337 8.98824Z" fill="#DF542F"/>
<path fill-rule="evenodd" clip-rule="evenodd" d="M35.2753 21.5168C35.8609 28.4611 30.7021 34.5648 23.754 35.1501C16.8055 35.7345 10.6983 30.5794 10.1131 23.6344C9.52795 16.6901 14.6863 10.5864 21.6348 10.0015C28.5833 9.41668 34.6905 14.5722 35.2753 21.5168Z" fill="#F6EB3D"/>
<path fill-rule="evenodd" clip-rule="evenodd" d="M26.6731 26.7323L17.1938 18.6793L14.0916 21.5143L3.79179 12.8816C3.79179 12.8816 -0.67672 18.3745 1.73364 27.1256C1.73364 27.1256 9.1658 32.6733 15.1604 31.6845C21.155 30.6965 23.0133 28.0778 23.9188 28.4531C24.8239 28.8287 24.6562 27.6605 26.6731 26.7323Z" fill="#917E70"/>
<path fill-rule="evenodd" clip-rule="evenodd" d="M1.17944 28.8898C1.17944 28.8898 6.35276 28.8552 9.0075 30.4882C11.6626 32.122 20.8129 30.7073 26.268 27.2218C31.7231 23.7359 35.6466 28.198 37.5749 29.3602C39.5031 30.5225 42.5841 30.3116 42.5841 30.3116C42.5841 30.3116 42.0764 36.7493 35.2944 40.6804C26.2535 45.9209 9.50019 47.3104 1.17944 28.8898Z" fill="#35A0CD"/>
<path fill-rule="evenodd" clip-rule="evenodd" d="M11.2768 33.0248C12.6683 37.3567 15.595 41.217 19.7164 43.8475L9.01404 39.4652L2.95528 31.3458L1.4646 28.3857C1.4646 28.3857 9.9585 28.9222 11.2768 33.0248Z" fill="#84BF41"/>
<path fill-rule="evenodd" clip-rule="evenodd" d="M37.2745 36.6698C36.8251 37.0301 36.4934 37.2558 35.7205 36.848C33.9335 35.904 31.9076 34.8338 28.1494 35.0384C24.3912 35.2421 22.4932 36.5251 20.8188 37.657C19.5067 38.5443 18.3443 39.2696 16.1972 39.5933C13.8801 37.3447 12.6912 34.4209 12.1344 32.5798C13.0143 32.6986 14.0001 32.7466 15.1347 32.6848C19.2321 32.4626 21.3044 31.0616 23.1331 29.8259C24.817 28.6872 26.2719 27.7036 29.4512 27.5313C32.6305 27.3586 34.183 28.1787 35.9806 29.1277C37.1529 29.7468 38.4189 30.4158 40.1307 30.8028C40.4908 30.8842 40.7627 31.0357 41.0178 31.2016C40.0587 33.2496 38.79 35.0891 37.2745 36.6698ZM25.0014 42.7676C22.5922 42.8832 20.6053 42.4073 18.971 41.5853C20.5467 41.0685 21.6663 40.3629 22.6945 39.6679C24.2025 38.648 25.5047 37.7678 28.3448 37.6136C31.1845 37.4595 32.5748 38.1938 34.1844 39.0437C34.2619 39.085 34.326 39.1232 34.3851 39.1609C31.6591 41.0964 28.4515 42.3593 25.0014 42.7676ZM3.35662 29.1698C4.83314 29.4109 5.59501 30.0324 6.87437 30.7081C7.70904 31.149 8.5929 31.6146 9.65031 31.9859C10.0871 33.7534 11.4586 38.1546 14.8315 41.3632C9.50746 39.154 5.26484 34.7391 3.35662 29.1698ZM2.33022 24.2898C2.05515 21.0249 2.5628 17.8155 3.77486 14.8701L13.6788 23.4796L16.5075 20.5286L23.8711 26.4731C22.8897 26.9497 22.079 27.4953 21.3136 28.0125C19.6293 29.1511 18.1748 30.1344 14.9955 30.307C11.817 30.4797 10.2641 29.6596 8.46689 28.7102C6.85461 27.8587 5.38911 26.6603 2.61907 26.394C2.48803 25.7049 2.39043 25.0033 2.33022 24.2898ZM7.05961 9.46755C10.5648 5.31972 15.4768 2.78485 20.8901 2.32901C28.2393 1.70955 35.2059 5.03379 39.3486 11.0538L34.0666 13.9021C33.8872 13.9989 33.7487 14.1397 33.6483 14.3013C31.1175 10.9755 27.1209 8.82843 22.709 8.82843C22.3214 8.82843 21.9283 8.84494 21.5403 8.87759C16.3008 9.31849 11.9929 12.6589 10.052 17.1819L4.88931 12.5822C5.50951 11.4911 6.23163 10.4473 7.05961 9.46755ZM29.3122 25.1533C28.2497 25.2112 27.3257 25.3492 26.5048 25.5419L16.0452 17.1877L13.3271 20.1001L11.8502 18.7841C13.3066 14.6437 17.0778 11.5169 21.7293 11.1256C22.0547 11.0981 22.3841 11.0843 22.7088 11.0843C28.6274 11.0843 33.6536 15.7084 34.151 21.6116C34.2659 22.9728 34.1333 24.2979 33.7976 25.547C32.5789 25.2308 31.1323 25.0546 29.3122 25.1533ZM42.7269 28.7718C42.1902 28.6931 41.7274 28.6557 41.4192 28.6038C39.8723 28.3435 38.7779 27.7653 37.5733 27.1293C37.0542 26.8552 36.5151 26.572 35.9287 26.3069C36.3667 24.7616 36.543 23.1148 36.4002 21.4216C36.2357 19.4704 35.656 17.6368 34.756 16.0038C34.8863 15.9861 35.0158 15.9531 35.1381 15.887L41.4968 12.4581C41.5054 12.4534 41.5125 12.4471 41.5208 12.442C41.529 12.4373 41.5381 12.4349 41.5464 12.4298C41.5711 12.4149 41.5908 12.3952 41.614 12.3791C41.6459 12.3563 41.6782 12.3346 41.7069 12.3091C41.7345 12.2847 41.7589 12.2575 41.7836 12.2308C41.8088 12.2036 41.8348 12.1769 41.8572 12.1474C41.8797 12.1183 41.8982 12.0868 41.9171 12.0558C41.9363 12.0251 41.9556 11.9948 41.9718 11.9626C41.9879 11.9299 41.9997 11.8961 42.0127 11.8623C42.0253 11.8284 42.0383 11.795 42.0477 11.7604C42.0572 11.7258 42.0627 11.6908 42.0686 11.6554C42.0749 11.6196 42.0816 11.5838 42.0843 11.5472C42.0871 11.5118 42.0855 11.4764 42.0847 11.4406C42.0839 11.4037 42.0839 11.3671 42.0792 11.3301C42.0749 11.2939 42.0662 11.2581 42.0583 11.2223C42.0501 11.1862 42.043 11.1504 42.0312 11.115C42.0194 11.0788 42.0028 11.0442 41.9871 11.0088C41.9753 10.9824 41.9682 10.9557 41.9544 10.9301C41.9497 10.9215 41.943 10.9148 41.9383 10.9061C41.9332 10.8979 41.9308 10.8888 41.9257 10.8806C37.4419 3.49501 29.3135 -0.640623 20.7004 0.0810982C14.6865 0.587286 9.22947 3.40377 5.33512 8.01216C1.44077 12.6202 -0.424947 18.4683 0.0815228 24.4788C1.07321 36.2454 10.972 45.1668 22.5803 45.1668C23.2131 45.1668 23.8514 45.1405 24.4932 45.0862C32.8014 44.3865 39.9549 39.2554 43.2924 31.6484C43.4251 31.3648 43.6175 30.9487 43.6698 30.815C44 29.9682 44 29.7468 44 29.7468C43.9059 29.4258 43.5175 28.8878 42.7269 28.7718Z" fill="#1A1919"/>
</svg>
