<?xml version="1.0" encoding="utf-8"?>
<!-- Generator: Adobe Illustrator 17.1.0, SVG Export Plug-In . SVG Version: 6.00 Build 0)  -->
<!DOCTYPE svg PUBLIC "-//W3C//DTD SVG 1.1//EN" "http://www.w3.org/Graphics/SVG/1.1/DTD/svg11.dtd">
<svg version="1.1" id="Layer_1" xmlns="http://www.w3.org/2000/svg" xmlns:xlink="http://www.w3.org/1999/xlink" x="42px" y="42px" height="42px" width="42px"
	 viewBox="0 0 45.8 44.7" enable-background="new 0 0 45.8 44.7" xml:space="preserve">
<g>
	<circle fill="#FFFFFF" cx="22.7" cy="22.2" r="12.9"/>
	<g>
		<defs>
			<path id="SVGID_1_" d="M23.3,1.3c-11.4,0-20.6,9.2-20.6,20.6s9.2,20.6,20.6,20.6S44,33.3,44,21.9S34.7,1.3,23.3,1.3z M23.3,33.1
				c-6.2,0-11.2-5-11.2-11.2c0-6.2,5-11.2,11.2-11.2s11.2,5,11.2,11.2C34.6,28.1,29.5,33.1,23.3,33.1z"/>
		</defs>
		<clipPath id="SVGID_2_">
			<use xlink:href="#SVGID_1_"  overflow="visible"/>
		</clipPath>
		<polygon clip-path="url(#SVGID_2_)" fill="#F9ED32" points="62.5,-7 26,25.7 45.4,61.3 		"/>
		<polygon clip-path="url(#SVGID_2_)" fill="#F15A29" points="70.4,30.2 25.2,-10 21.3,15.1 		"/>
		<polygon clip-path="url(#SVGID_2_)" fill="#9B8579" points="61.6,51.4 15.1,20.7 19.5,61 		"/>
		<polygon clip-path="url(#SVGID_2_)" fill="#27AAE1" points="44.7,-48.7 10.4,17 50.3,17.3 		"/>
		<polygon clip-path="url(#SVGID_2_)" fill="#8DC63F" points="24.5,-23.8 -2,23.8 27,62.4 		"/>
		<polygon clip-path="url(#SVGID_2_)" fill="#F9ED32" points="15.7,3.9 -20.7,36.6 -1.4,72.2 		"/>
		<polygon clip-path="url(#SVGID_2_)" fill="#F15A29" points="30.7,-12.2 -15.3,4.2 -10.9,44.5 		"/>
		<path clip-path="url(#SVGID_2_)" fill="#27AAE1" d="M3.9,41.8c0.3,0,19.4-15.5,19.4-15.5l-5.3,20L3.9,41.8z"/>
	</g>
</g>
</svg>
