<?xml version="1.0" encoding="utf-8"?>
<!-- Generator: Adobe Illustrator 21.0.2, SVG Export Plug-In . SVG Version: 6.00 Build 0)  -->
<svg version="1.1" id="Layer_1" xmlns="http://www.w3.org/2000/svg" xmlns:xlink="http://www.w3.org/1999/xlink" x="0px" y="0px"
	 viewBox="0 0 110.5 81.9" style="enable-background:new 0 0 110.5 81.9;" xml:space="preserve">
<style type="text/css">
	.st0{fill:#F6EB3D;}
</style>
<g>
	<path class="st0" d="M110.5,5.6c-15.3,5.1-20.8,12.1-28.7,26.6c-1.4,4.1,19.4,0.8,16.3,27.5c-0.7,6.4-3.7,11.7-8.4,15.9
		c-4.7,4.2-10.4,6.3-17.1,6.3c-6.8,0-12-1.9-15.6-5.7c-3.7-3.8-4.9-10.1-3.7-18.7C60,18.1,89.9,5.9,108.7,0L110.5,5.6L110.5,5.6z
		 M57.7,5.6C42.4,10.7,36.9,17.7,29,32.2c-1.4,4.1,19.4,0.8,16.3,27.5c-0.7,6.4-3.7,11.7-8.4,15.9s-10.4,6.3-17.1,6.3
		c-6.8,0-12-1.9-15.6-5.7C0.5,72.3-0.7,66,0.4,57.4C7.2,18.1,37.1,5.9,55.9,0L57.7,5.6L57.7,5.6z"/>
</g>
</svg>
