<?xml version="1.0" encoding="utf-8"?>
<svg version="1.1" id="Layer_1" xmlns="http://www.w3.org/2000/svg" xmlns:xlink="http://www.w3.org/1999/xlink" x="0px" y="0px"
	 viewBox="0 0 26 26" style="enable-background:new 0 0 26 26;" xml:space="preserve">
<g class="st0">
	<path fill="#4a4a4a" d="M7.4,15.9L0,23.2L2.5,26l7.5-7.5c1.8,1.2,3.7,1.8,5.8,1.8c2.8,0,5.2-1,7.2-3c2-2,3-4.4,3-7.2c0-2.8-1-5.2-3-7.2
		s-4.4-3-7.2-3C13,0,10.6,1,8.6,3c-2,2-3,4.4-3,7.2C5.6,12.3,6.2,14.2,7.4,15.9z M9,10.2c0-1.9,0.7-3.5,2-4.8c1.3-1.3,2.9-2,4.8-2
		c1.9,0,3.5,0.7,4.8,2c1.3,1.3,2,2.9,2,4.8c0,1.9-0.7,3.4-2,4.8c-1.3,1.3-2.9,2-4.8,2s-3.5-0.7-4.8-2C9.6,13.6,9,12,9,10.2z"/>
</g>
</svg>
