<?xml version="1.0" encoding="utf-8"?>
<!-- Generator: Adobe Illustrator 21.1.0, SVG Export Plug-In . SVG Version: 6.00 Build 0)  -->
<svg version="1.1" id="Layer_1" xmlns="http://www.w3.org/2000/svg" xmlns:xlink="http://www.w3.org/1999/xlink" x="0px" y="0px"
	 viewBox="0 0 39.5 22.1" style="enable-background:new 0 0 39.5 22.1;" xml:space="preserve">
<style type="text/css">
	.st0{fill:#FFDA6A;}
	.st1{fill:#333333;}
</style>
<polygon class="st0" points="3.4,15 5.2,3.1 6.6,1.9 8.4,1.9 30.5,1.4 32.6,2 34,2.7 34.9,5.4 36.2,16.2 37.9,17.4 38.5,18.2 
	38.5,19.4 37.2,19.9 35.5,20.6 3.7,20.3 1.9,19.9 1.2,18.4 1.6,17.3 3.1,16.3 "/>
<path marker-start="none" marker-end="none" class="st1" d="M3.4,21.3c-1.6,0-2.9-1.2-2.9-2.8c0-1.2,0.7-2.2,1.8-2.6l0.3-0.1L4.1,4
	l0-0.1c0.4-1.9,1.9-3,3.8-3h23.8c1.7,0,3.4,1.2,3.8,3l0,0.1l1.4,11.7l0.5,0.1c1,0.4,1.8,1.4,1.8,2.6c0,1.6-1.3,2.8-2.9,2.8H3.4z
	 M36.3,19.8c0.8,0,1.4-0.6,1.4-1.3c0-0.7-0.6-1.3-1.4-1.3H3.4c-0.8,0-1.4,0.6-1.4,1.3c0,0.7,0.6,1.3,1.4,1.3H36.3z M35.4,15.6
	L34,4.2l-0.1-0.4c-0.4-0.9-1.3-1.4-2.2-1.4H7.9c-1,0-1.8,0.5-2.2,1.4L5.6,4.2L4.2,15.6H35.4z"/>
<g>
	<path class="st1" d="M13.5,13.9c-0.4,0-0.7-0.3-0.7-0.7V9.8c0-0.4,0.3-0.7,0.7-0.7h3.4c0.4,0,0.7,0.3,0.7,0.7v3.4
		c0,0.4-0.3,0.7-0.7,0.7H13.5z"/>
	<path class="st1" d="M22.7,13.9c-0.4,0-0.7-0.3-0.7-0.7V9.8c0-0.4,0.3-0.7,0.7-0.7h3.4c0.4,0,0.7,0.3,0.7,0.7v3.4
		c0,0.4-0.3,0.7-0.7,0.7H22.7z"/>
	<path class="st1" d="M8.8,9.1c-0.4,0-0.7-0.3-0.7-0.7V5c0-0.4,0.3-0.7,0.7-0.7h3.4c0.4,0,0.7,0.3,0.7,0.7v3.4
		c0,0.4-0.3,0.7-0.7,0.7H8.8z"/>
	<path class="st1" d="M18.1,9.1c-0.4,0-0.7-0.3-0.7-0.7V5c0-0.4,0.3-0.7,0.7-0.7h3.4c0.4,0,0.7,0.3,0.7,0.7v3.4
		c0,0.4-0.3,0.7-0.7,0.7H18.1z"/>
	<path class="st1" d="M27.4,9.1c-0.4,0-0.7-0.3-0.7-0.7V5c0-0.4,0.3-0.7,0.7-0.7h3.4c0.4,0,0.7,0.3,0.7,0.7v3.4
		c0,0.4-0.3,0.7-0.7,0.7H27.4z"/>
</g>
</svg>
