<svg width="49" height="48" viewBox="0 0 49 48" fill="none" xmlns="http://www.w3.org/2000/svg">
<rect x="0.83252" width="48" height="48" rx="24" fill="#C4C4C4"/>
<path fill-rule="evenodd" clip-rule="evenodd" d="M31.3325 32.6904C31.3325 32.8534 31.2527 33.0054 31.1089 33.0821C30.581 33.3639 29.1042 34 26.5309 34C23.2237 34 21.187 32.1193 21.187 30.2808V22.5958C21.187 22.3197 20.9631 22.0958 20.687 22.0958H18.8325C18.5564 22.0958 18.3325 21.872 18.3325 21.5958V19.692C18.3325 19.4406 18.5188 19.2262 18.7631 19.167C19.4188 19.0083 20.6694 18.5879 21.4125 17.5878C22.2609 16.4479 22.5679 15.2488 22.6777 14.4652C22.7142 14.2044 22.9307 14 23.194 14H25.2149C25.491 14 25.7149 14.2239 25.7149 14.5V18.0503C25.7149 18.3265 25.9387 18.5503 26.2149 18.5503H30.0165C30.2926 18.5503 30.5165 18.7742 30.5165 19.0503V21.6404C30.5165 21.9166 30.2926 22.1404 30.0165 22.1404H26.2596C25.9835 22.1404 25.7596 22.3643 25.7596 22.6404V29.1797C25.7596 30.464 27.347 30.8069 28.2078 30.8069C28.8513 30.8069 29.7761 30.5367 30.5802 30.1988C30.9279 30.0527 31.3325 30.2989 31.3325 30.6761V32.6904Z" stroke="white" stroke-width="2"/>
</svg>
