<svg width="49" height="48" viewBox="0 0 49 48" fill="none" xmlns="http://www.w3.org/2000/svg">
<rect x="0.83252" width="48" height="48" rx="24" fill="#C4C4C4"/>
<g clip-path="url(#clip0_1088_4091)">
<path d="M35.8325 15C34.8749 15.6755 33.8146 16.1922 32.6925 16.53C32.0903 15.8376 31.2899 15.3467 30.3996 15.124C29.5093 14.9012 28.572 14.9572 27.7146 15.2845C26.8572 15.6118 26.121 16.1944 25.6055 16.9538C25.09 17.7131 24.8202 18.6124 24.8325 19.53V20.53C23.0752 20.5756 21.3338 20.1859 19.7635 19.3955C18.1933 18.6051 16.8428 17.4387 15.8325 16C15.8325 16 11.8325 25 20.8325 29C18.773 30.398 16.3197 31.099 13.8325 31C22.8325 36 33.8325 31 33.8325 19.5C33.8316 19.2215 33.8048 18.9436 33.7525 18.67C34.7731 17.6635 35.4933 16.3928 35.8325 15Z" stroke="white" stroke-width="2" stroke-linecap="round" stroke-linejoin="round"/>
</g>
<defs>
<clipPath id="clip0_1088_4091">
<rect width="24" height="24" fill="white" transform="translate(12.8325 12)"/>
</clipPath>
</defs>
</svg>
