<svg version="1.1" id="views" xmlns="http://www.w3.org/2000/svg" xmlns:xlink="http://www.w3.org/1999/xlink" x="0px" y="0px"
	 viewBox="0 0 23.7 23.6" style="enable-background:new 0 0 23.7 23.6;" xml:space="preserve">
<path class="stat-icon" d="M12.1,2.3c-5.5,0-10,4.5-10,10c0,5.5,4.5,10,10,10c5.5,0,10-4.5,10-10C22.1,6.7,17.7,2.3,12.1,2.3z M12.1,16.3
	c-5.5,0-8.5-4.1-8.5-4.1s3-4.1,8.5-4.1c5.5,0,8.5,4.1,8.5,4.1S17.7,16.3,12.1,16.3z M12.1,9c-1.8,0-3.3,1.5-3.3,3.3s1.5,3.3,3.3,3.3
	s3.3-1.5,3.3-3.3S14,9,12.1,9z"/>
</svg>