<svg width="49" height="48" viewBox="0 0 49 48" fill="none" xmlns="http://www.w3.org/2000/svg">
<rect x="0.83252" width="48" height="48" rx="24" fill="#C4C4C4"/>
<path fill-rule="evenodd" clip-rule="evenodd" d="M35.7468 33C35.0744 33 34.3987 32.9977 33.7263 33C32.8682 33.0023 32.1196 32.6612 31.5135 32.0112C30.8442 31.2879 30.2315 30.4937 29.5856 29.7406C29.3901 29.514 29.1814 29.2943 28.9594 29.1043C28.4428 28.6648 27.9259 28.7541 27.6809 29.4247C27.4653 30.0153 27.3993 30.6768 27.2731 31.3108C27.2601 31.3772 27.2701 31.4527 27.2701 31.5259C27.2634 32.3934 26.8923 32.881 26.1206 32.9267C24.0999 33.0503 22.1422 32.7963 20.3168 31.7045C18.7699 30.7798 17.5376 29.4728 16.4676 27.9484C14.6822 25.4009 13.2909 22.5924 12.0157 19.7038C11.6711 18.921 11.3497 18.1245 11.0153 17.3348L10.9524 17.17C10.6608 16.3758 10.9024 15.9226 11.6645 15.847C11.86 15.8264 12.0588 15.8402 12.254 15.8356C13.3074 15.8196 14.3642 15.8104 15.4178 15.7921C16.1595 15.7784 16.6664 16.108 16.9547 16.9114C17.69 18.9691 18.6407 20.9009 19.8399 22.6748C20.0586 22.9975 20.3237 23.302 20.6117 23.5514C20.9894 23.8742 21.3174 23.7597 21.4831 23.2562C21.5988 22.8991 21.6717 22.51 21.7082 22.13C21.8374 20.7155 21.844 19.2987 21.632 17.891C21.5129 17.1128 21.0822 16.6871 20.4029 16.5337C20.0056 16.4444 19.9592 16.2728 20.2276 15.9271C20.5852 15.4579 21.0621 15.2451 21.5922 15.1672C23.0001 14.9589 24.4144 14.9383 25.8158 15.1443C27.111 15.332 27.2767 15.8745 27.3165 17.2318C27.343 18.1291 27.2701 19.0286 27.2601 19.9258C27.2502 20.7979 27.2436 21.67 27.28 22.542C27.2899 22.8304 27.3927 23.1372 27.5216 23.3935C27.6942 23.7277 27.9424 23.7803 28.2075 23.5354C28.5388 23.2241 28.8567 22.8854 29.1184 22.5077C30.311 20.7727 31.2352 18.8707 31.9506 16.8381C32.2455 15.9981 32.4543 15.847 33.2691 15.8425C34.6936 15.8425 36.1179 15.831 37.5424 15.8333C37.8008 15.8333 38.0692 15.8562 38.3141 15.9363C38.725 16.0713 38.9335 16.4559 38.7844 16.8999C38.5427 17.6186 38.3077 18.3694 37.9265 18.9988C36.9826 20.569 35.9555 22.0774 34.9651 23.6155C34.7698 23.92 34.5876 24.2358 34.4186 24.5608C34.1701 25.0346 34.2198 25.4924 34.5346 25.9067C34.7466 26.1814 34.975 26.4446 35.2069 26.6964C36.2935 27.8729 37.4264 28.9944 38.2812 30.4067C38.4599 30.6928 38.619 31.0041 38.7382 31.3268C38.9602 31.9334 38.7482 32.4804 38.1948 32.707C37.8836 32.8283 37.5457 32.881 37.2143 32.929C36.9694 32.9634 36.714 32.9382 36.4658 32.9428H35.7468V33Z" stroke="white" stroke-width="2"/>
</svg>
